<?xml version="1.0" encoding="UTF-8"?> <svg xmlns="http://www.w3.org/2000/svg" xmlns:xlink="http://www.w3.org/1999/xlink" width="323px" height="65px" viewBox="0 0 323 65" version="1.1"><!-- Generator: Sketch 63.1 (92452) - https://sketch.com --><title>Group 41</title><desc>Created with Sketch.</desc><defs><polygon id="path-1" points="0.000202331002 0.632028986 61.5331068 0.632028986 61.5331068 64.9272319 0.000202331002 64.9272319"></polygon><polygon id="path-3" points="0.303995192 0.175522145 29.9219712 0.175522145 29.9219712 30.3278998 0.303995192 30.3278998"></polygon></defs><g id="Inicio" stroke="none" stroke-width="1" fill="none" fill-rule="evenodd"><g id="Blog" transform="translate(-198.000000, -25.000000)"><g id="Group-Copy-2" transform="translate(0.000000, 12.000000)"><g id="Group-41" transform="translate(197.300000, 13.000000)"><g id="Group-3" transform="translate(0.700000, 0.000000)"><mask id="mask-2" fill="white"><use xlink:href="#path-1"></use></mask><g id="Clip-2"></g><path d="M16.0956336,4.02824638 C9.08891096,4.02824638 3.38823497,9.74491304 3.38823497,16.7733188 L3.38823497,48.7866522 C3.38823497,55.815058 9.08891096,61.5317246 16.0956336,61.5317246 L45.4376755,61.5317246 C52.4464214,61.5317246 58.1460858,55.815058 58.1460858,48.7866522 L58.1460858,16.7733188 C58.1460858,9.74491304 52.4464214,4.02824638 45.4376755,4.02824638 L16.0956336,4.02824638 Z M45.4376755,64.9272319 L16.0956336,64.9272319 C7.22038415,64.9272319 0.000202331002,57.6878116 0.000202331002,48.7866522 L0.000202331002,16.7733188 C0.000202331002,7.87215942 7.22038415,0.631724638 16.0956336,0.631724638 L45.4376755,0.631724638 C54.3129249,0.631724638 61.5331068,7.87215942 61.5331068,16.7733188 L61.5331068,48.7866522 C61.5331068,57.6878116 54.3129249,64.9272319 45.4376755,64.9272319 L45.4376755,64.9272319 Z" id="Fill-1" fill="#0A2332" mask="url(#mask-2)"></path></g><path d="M13.7,14.3740902 C13.7,14.720524 13.4196216,15 13.0732719,15 L10.3247878,15 C9.97843803,15 9.7,14.720524 9.7,14.3740902 L9.7,11.6259098 C9.7,11.2804464 9.97843803,11 10.3247878,11 L13.0732719,11 C13.4196216,11 13.7,11.2804464 13.7,11.6259098 L13.7,14.3740902 Z" id="Fill-4" fill="#0A2332"></path><path d="M53.7,14.3740902 C53.7,14.720524 53.4214268,15 53.0758796,15 L50.325091,15 C49.9785732,15 49.7,14.720524 49.7,14.3740902 L49.7,11.6259098 C49.7,11.2804464 49.9785732,11 50.325091,11 L53.0758796,11 C53.4214268,11 53.7,11.2804464 53.7,11.6259098 L53.7,14.3740902 Z" id="Fill-6" fill="#0A2332"></path><path d="M53.7,54.3743938 C53.7,54.7187197 53.4214268,55 53.0758796,55 L50.325091,55 C49.9785732,55 49.7,54.7187197 49.7,54.3743938 L49.7,51.6275461 C49.7,51.2812803 49.9785732,51 50.325091,51 L53.0758796,51 C53.4214268,51 53.7,51.2812803 53.7,51.6275461 L53.7,54.3743938 Z" id="Fill-8" fill="#0A2332"></path><path d="M13.7,54.3743938 C13.7,54.7187197 13.4196216,55 13.0742421,55 L10.3267281,55 C9.98037837,55 9.7,54.7187197 9.7,54.3743938 L9.7,51.6275461 C9.7,51.2812803 9.98037837,51 10.3267281,51 L13.0742421,51 C13.4196216,51 13.7,51.2812803 13.7,51.6275461 L13.7,54.3743938 Z" id="Fill-10" fill="#0A2332"></path><path d="M20.7182903,37 C20.7080186,36.8223334 20.6885023,36.6476278 20.6885023,36.4679871 C20.6885023,30.5339212 25.8418158,25.7240903 32.2,25.7240903 C38.5571571,25.7240903 43.7094433,30.5339212 43.7094433,36.4679871 C43.7094433,36.6476278 43.6909543,36.8223334 43.6806826,37 L47.6835653,37 C47.6917826,36.8223334 47.7,36.6476278 47.7,36.4679871 C47.7,28.4769362 40.7604374,22 32.2,22 C23.6395626,22 16.7,28.4769362 16.7,36.4679871 C16.7,36.6476278 16.7082174,36.8223334 16.7143804,37 L20.7182903,37 Z" id="Fill-12" fill="#0A2332"></path><path d="M28.2137497,37 C28.2117327,36.94209 28.2056814,36.8873388 28.2056814,36.8294288 C28.2056814,34.5256646 29.9948296,32.6609634 32.2005043,32.6609634 C34.4071875,32.6609634 36.1953271,34.5256646 36.1953271,36.8294288 C36.1953271,36.8873388 36.1892759,36.94209 36.1852417,37 L39.6919317,37 C39.6939488,36.94209 39.7,36.8873388 39.7,36.8294288 C39.7,32.5061858 36.3435823,29 32.2005043,29 C28.0584347,29 24.7,32.5061858 24.7,36.8294288 C24.7,36.8873388 24.7070598,36.94209 24.7090769,37 L28.2137497,37 Z" id="Fill-14" fill="#0A2332"></path><path d="M34.7,42.998997 C34.7,44.6559679 33.3555184,46 31.7,46 C30.0414716,46 28.7,44.6559679 28.7,42.998997 C28.7,41.3420261 30.0414716,40 31.7,40 C33.3555184,40 34.7,41.3420261 34.7,42.998997" id="Fill-16" fill="#0A2332"></path><path d="M105.011016,33.1847134 C105.011016,26.1620382 100.876601,22.197707 95.902893,22.197707 C90.6911302,22.197707 86.6157209,26.4015287 86.6157209,33.2428025 C86.6157209,39.8466242 90.6290733,44.1676433 95.902893,44.1676433 C100.935606,44.1676433 105.011016,40.0280255 105.011016,33.1847134 M83.8597838,58.0356688 C83.5596725,57.7370701 83.3785885,57.3171975 83.6786997,56.9523567 L85.2372437,54.7347771 C85.4773327,54.3750318 85.8964711,54.433121 86.25457,54.6736306 C86.8537752,55.0935032 89.4316802,57.6789809 95.4216977,57.6789809 C100.754522,57.6789809 104.953028,55.3380892 104.953028,49.0899363 L104.953028,42.2456051 C103.693578,45.1887898 100.516468,48.3735032 95.185678,48.3735032 C86.9748371,48.3735032 81.7,42.0081529 81.7,33.1266242 C81.7,23.8771975 87.2729137,18 95.185678,18 C100.578525,18 103.812605,21.0593631 105.130043,23.8771975 L105.24907,23.8771975 L105.1921,19.1383439 C105.1921,18.6583439 105.430154,18.4198726 105.91135,18.4198726 L112.98075,18.4198726 C113.461946,18.4198726 113.7,18.6583439 113.7,19.1383439 L113.7,21.717707 C113.7,22.197707 113.461946,22.4361783 112.98075,22.4361783 L109.745653,22.4361783 L109.745653,49.0899363 C109.745653,57.9755414 103.632539,62 95.4837546,62 C87.6330472,62 84.3369099,58.3974522 83.8597838,58.0356688" id="Fill-18" fill="#0A2332"></path><path d="M139.519185,29.9728234 C139.278093,25.1736286 136.365423,21.9104177 131.143839,21.9104177 C126.956682,21.9104177 122.710797,24.2818319 121.980311,29.9728234 L139.519185,29.9728234 Z M121.858735,33.5923503 C122.162675,40.5294414 127.139045,43.845999 131.935113,43.845999 C137.152575,43.845999 140.732883,40.6441872 141.583915,39.2833417 C141.887855,38.8686462 142.251552,38.8072471 142.675007,39.1061902 L144.314222,40.7045798 C144.738707,41.0629089 144.801556,41.4182184 144.558404,41.7725214 C143.769191,43.0790136 139.63973,48 131.631173,48 C123.439222,48 116.7,42.3643684 116.7,32.8787116 C116.7,23.2773025 123.742131,18 131.023294,18 C139.70464,18 144.738707,23.6285858 144.558404,32.8213387 C144.558404,33.2934071 144.256525,33.5923503 143.708403,33.5923503 L121.858735,33.5923503 Z" id="Fill-20" fill="#0A2332"></path><path d="M200.926007,43.9708044 L197.77042,43.9708044 L197.77042,19.1402613 C197.77042,18.6594528 197.535999,18.4205798 197.060084,18.4205798 L189.560638,18.4205798 C189.082702,18.4205798 188.784624,18.6594528 188.784624,19.1402613 L188.784624,21.723969 C188.784624,22.2047775 189.082702,22.4436505 189.560638,22.4436505 L192.834446,22.4436505 L192.834446,43.9708044 L178.029557,43.9708044 L178.029557,28.4614128 C177.971962,22.1445488 174.281855,18 167.852459,18 C161.424074,18 158.984884,22.0291956 158.270507,23.2276439 L158.09267,23.2276439 L158.211902,19.1402613 C158.211902,18.6594528 157.913824,18.4205798 157.435888,18.4205798 L150.475003,18.4205798 C149.998078,18.4205798 149.7,18.6594528 149.7,19.1402613 L149.7,21.723969 C149.7,22.2047775 149.998078,22.4436505 150.475003,22.4436505 L153.747801,22.4436505 L153.747801,43.9708044 L150.475003,43.9708044 C149.998078,43.9708044 149.7,44.2117191 149.7,44.6986525 L149.7,47.2803185 C149.7,47.761127 149.998078,48 150.475003,48 L161.840373,48 C162.318308,48 162.614366,47.761127 162.614366,47.2803185 L162.614366,44.6986525 C162.614366,44.2117191 162.318308,43.9708044 161.840373,43.9708044 L158.684785,43.9708044 L158.684785,27.4385463 C158.746422,27.3803593 160.591475,22.3282973 166.602551,22.3282973 C171.008047,22.3282973 173.151179,25.1508779 173.151179,29.660882 L173.151179,45.476521 C173.151179,47.3405472 173.983777,48 175.708589,48 L200.926007,48 C201.403943,48 201.7,47.761127 201.7,47.2803185 L201.7,44.6986525 C201.7,44.2117191 201.403943,43.9708044 200.926007,43.9708044" id="Fill-22" fill="#0A2332"></path><path d="M227.004627,33.916276 L222.224137,33.916276 C215.927906,33.916276 210.905925,34.6878768 210.905925,39.1245814 C210.905925,41.7890154 213.325971,43.7983925 217.139471,43.7983925 C222.224137,43.7983925 225.613229,40.4879437 227.004627,38.709645 L227.004627,33.916276 Z M230.153256,47.5267917 C228.397052,47.5267917 227.548238,46.8767582 227.548238,45.0421969 L227.548238,42.0241125 L227.430062,42.0241125 C226.338729,43.5040188 222.950664,48 215.626813,48 C209.996481,48 205.7,44.9266577 205.7,39.7756196 C205.7,33.0271266 212.356925,30.3647019 221.920989,30.3647019 L227.004627,30.3647019 L227.004627,29.6563965 C227.004627,24.03215 223.799479,22.2598794 219.137165,22.2598794 C212.720703,22.2598794 210.240027,24.9815807 209.996481,24.9815807 C209.695388,25.0981246 209.330583,25.0981246 209.089092,24.8037508 L207.395574,22.7310784 C207.09037,22.3744139 207.153055,22.0800402 207.51375,21.7856664 C207.816898,21.4300067 211.146388,18 219.318026,18 C227.128969,18 232.030718,21.1949096 232.030718,29.8352311 L232.030718,43.561286 L245.975528,43.561286 C246.459537,43.561286 246.7,43.7983925 246.7,44.2776289 L246.7,46.8184863 C246.7,47.2916946 246.459537,47.5267917 245.975528,47.5267917 L230.153256,47.5267917 Z" id="Fill-24" fill="#0A2332"></path><path d="M243.481098,48 C243.000031,48 242.7,47.7620883 242.7,47.2832147 L242.7,44.7119381 C242.7,44.2269643 243.000031,43.9870191 243.481098,43.9870191 L246.776357,43.9870191 L246.776357,9.0150143 L243.481098,9.0150143 C243.000031,9.0150143 242.7,8.77710259 242.7,8.29822902 L242.7,5.72085215 C242.7,5.23994514 243.000031,5 243.481098,5 L250.129588,5 C251.32768,5 251.746706,5.48090701 251.746706,6.49965715 L251.746706,43.9870191 L254.92297,43.9870191 C255.402003,43.9870191 255.7,44.2269643 255.7,44.7119381 L255.7,47.2832147 C255.7,47.7620883 255.402003,48 254.92297,48 L243.481098,48 Z" id="Fill-26" fill="#0A2332"></path><path d="M275.481098,47 C275.002065,47 274.7,46.7658143 274.7,46.2944404 L274.7,43.7634331 C274.7,43.2860545 275.002065,43.0498671 275.481098,43.0498671 L278.776357,43.0498671 L278.776357,21.9451289 L275.481098,21.9451289 C275.002065,21.9451289 274.7,21.7099424 274.7,21.2395693 L274.7,18.7065604 C274.7,18.2351865 275.002065,18 275.481098,18 L283.031716,18 C283.508715,18 283.746706,18.2351865 283.746706,18.7065604 L283.746706,43.0498671 L286.92297,43.0498671 C287.404037,43.0498671 287.7,43.2860545 287.7,43.7634331 L287.7,46.2944404 C287.7,46.7658143 287.404037,47 286.92297,47 L275.481098,47 Z" id="Fill-28" fill="#0A2332"></path><g id="Group-32" transform="translate(293.700000, 18.000000)"><mask id="mask-4" fill="white"><use xlink:href="#path-3"></use></mask><g id="Clip-31"></g><path d="M24.9840433,15.1925291 C24.9840433,8.39521911 20.2852933,4.34252914 15.1715913,4.34252914 C9.99933173,4.34252914 5.30058173,8.39521911 5.30058173,15.1925291 C5.30058173,21.920035 9.81861058,26.1527995 15.1110144,26.1527995 C20.4639952,26.1527995 24.9840433,21.920035 24.9840433,15.1925291 M0.303995192,15.1298065 C0.303995192,5.71635664 6.90587019,0.175522145 15.1715913,0.175522145 C23.4383221,0.175522145 29.9220721,5.83269697 29.9220721,15.1298065 C29.9220721,24.4259044 23.617024,30.3278998 15.1110144,30.3278998 C6.66861058,30.3278998 0.303995192,24.4855921 0.303995192,15.1298065" id="Fill-30" fill="#0A2332" mask="url(#mask-4)"></path></g><path d="M197.7,11.998997 C197.7,13.6559679 196.355518,15 194.7,15 C193.041472,15 191.7,13.6559679 191.7,11.998997 C191.7,10.3420261 193.041472,9 194.7,9 C196.355518,9 197.7,10.3420261 197.7,11.998997" id="Fill-33" fill="#DDDB00"></path><path d="M266.7,32.998997 C266.7,34.6579739 265.355518,36 263.7,36 C262.041472,36 260.7,34.6579739 260.7,32.998997 C260.7,31.3440321 262.041472,30 263.7,30 C265.355518,30 266.7,31.3440321 266.7,32.998997" id="Fill-35" fill="#DDDB00"></path><path d="M311.7,32.998997 C311.7,34.6579739 310.355518,36 308.7,36 C307.041472,36 305.7,34.6579739 305.7,32.998997 C305.7,31.3440321 307.041472,30 308.7,30 C310.355518,30 311.7,31.3440321 311.7,32.998997" id="Fill-37" fill="#0A2332"></path><path d="M283.7,11.998997 C283.7,13.6579739 282.355518,15 280.7,15 C279.041472,15 277.7,13.6579739 277.7,11.998997 C277.7,10.3440321 279.041472,9 280.7,9 C282.355518,9 283.7,10.3440321 283.7,11.998997" id="Fill-39" fill="#0A2332"></path></g></g></g></g></svg> 